{"title":"Roar Tigers of Sunderbans 2014 Hindi DVD SCR RIP GOPI SAHI PDR","uid":11337609,"size":724145352,"categoryP":"video","categoryS":"movies","magnet":"?xt=urn:btih:fb039a1eeaa2d13cbf2e6a485d4ff030cbe3ee17&amp;dn=Roar+Tigers+of+Sunderbans+2014+Hindi+DVD+SCR+RIP+GOPI+SAHI+PDR&amp;tr=udp%3A%2F%2Ftracker.openbittorrent.com%3A80&amp;tr=udp%3A%2F%2Fopen.demonii.com%3A1337&amp;tr=udp%3A%2F%2Ftracker.coppersurfer.tk%3A6969&amp;tr=udp%3A%2F%2Fexodus.desync.com%3A6969","seeders":3,"leechers":0,"uploader":"jatt13","files":1,"time":1414767986,"description":"General\nUnique ID                      : 198948341338264583583967242232657439658 (0x95AC0E8A3EC289308746DC5764696BAA)\nComplete name                  : D:Roar Tigers of Sunderbans 2014 Hindi DVD SCR RIP GOPI SAHI PDR.mkv\nFormat                         : Matroska\nFormat version                 : Version 4 / Version 2\nFile size                      : 691 MiB\nDuration                       : 1h 58mn\nOverall bit rate               : 812 Kbps\nMovie name                     : GOPI SAHI\nEncoded date                   : UTC 2014-11-01 03:26:31\nWriting application            : mkvmerge v6.5.0 ('Isn't she lovely') built on Oct 20 2013 12:50:05\nWriting library                : libebml v1.3.0 + libmatroska v1.4.1\n\nVideo\nID                             : 1\nFormat                         : MPEG-4 Visual\nFormat profile                 : Advanced Simple@L5\nFormat settings, BVOP          : Yes\nFormat settings, QPel          : No\nFormat settings, GMC           : No warppoints\nFormat settings, Matrix        : Default (H.263)\nCodec ID                       : V_MS/VFW/FOURCC / XVID\nCodec ID/Hint                  : XviD\nDuration                       : 1h 58mn\nBit rate                       : 700 Kbps\nWidth                          : 640 pixels\nHeight                         : 272 pixels\nDisplay aspect ratio           : 2.35:1\nFrame rate mode                : Constant\nFrame rate                     : 23.976 fps\nColor space                    : YUV\nChroma subsampling             : 4:2:0\nBit depth                      : 8 bits\nScan type                      : Progressive\nCompression mode               : Lossy\nBits/(Pixel*Frame)             : 0.168\nStream size                    : 595 MiB (86%)\nTitle                          : GOPI SAHI\nWriting library                : XviD 1.2.1 (UTC 2008-12-04)\nLanguage                       : Hindi\nDefault                        : Yes\nForced                         : No\n\nAudio\nID                             : 2\nFormat                         : MPEG Audio\nFormat version                 : Version 1\nFormat profile                 : Layer 3\nMode                           : Joint stereo\nMode extension                 : MS Stereo\nCodec ID                       : A_MPEG/L3\nCodec ID/Hint                  : MP3\nDuration                       : 1h 6mn\nBit rate mode                  : Constant\nBit rate                       : 96.0 Kbps\nChannel(s)                     : 2 channels\nSampling rate                  : 32.0 KHz\nCompression mode               : Lossy\nStream size                    : 45.3 MiB (7%)\nTitle                          : GOPI SAHI\nWriting library                : LAME3.99r\nEncoding settings              : -m j -V 4 -q 2 -lowpass 15.1 -b 96\nLanguage                       : Hindi\nDefault                        : Yes\nForced                         : No\n\nText\nID                             : 3\nFormat                         : UTF-8\nCodec ID                       : S_TEXT/UTF8\nCodec ID/Info                  : UTF-8 Plain Text\nDefault                        : Yes\nForced                         : No\n[IMG]http://imgchicken.com/images/62657605936810334971.jpg[/IMG]\n[IMG]http://imgchicken.com/images/17415517260687092115.jpg[/IMG]\n[IMG]http://imgchicken.com/images/52170921843389043997.jpg[/IMG]\n[IMG]http://imgchicken.com/images/10065840488555640483.jpg[/IMG]\n[IMG]http://imgchicken.com/images/71109336380459324841.jpg[/IMG]","torrent":{"xt":"urn:btih:fb039a1eeaa2d13cbf2e6a485d4ff030cbe3ee17","amp;dn":"Roar+Tigers+of+Sunderbans+2014+Hindi+DVD+SCR+RIP+GOPI+SAHI+PDR","amp;tr":["udp%3A%2F%2Ftracker.openbittorrent.com%3A80","udp%3A%2F%2Fopen.demonii.com%3A1337","udp%3A%2F%2Ftracker.coppersurfer.tk%3A6969","udp%3A%2F%2Fexodus.desync.com%3A6969"],"infoHash":"fb039a1eeaa2d13cbf2e6a485d4ff030cbe3ee17","infoHashBuffer":{"type":"Buffer","data":[251,3,154,30,234,162,209,60,191,46,106,72,93,79,240,48,203,227,238,23]},"announce":[],"urlList":[]}}